**ABCDEFGHIJKLMNOPQRSTUVWXYZabcdefghijklmnopqrstuvwxyz**************************
**PARASOLID !"#$%&'()*+,-./:;<=>?@[\]^_`{|}~0123456789**************************
**PART1;
MC=AMD64;
MC_MODEL=Intel64 Family 6 Model 158 Stepping 9, GenuineIntel;
MC_ID=unknown;
OS=Windows_NT;
OS_RELEASE=unknown;
FRU=Parasolid Version 29.0, build 195, 12- 2-2016;
APPL=SOLIDWORKS 2017-2017109;
SITE=;
USER=unknown;
FORMAT=text;
GUISE=transmit;
KEY=gabarit d'ass bride centale;
FILE=gabarit d'ass bride centale.x_t;
DATE=Thu Sep 28 12:03:36 2023;
**PART2;
SCH=SCH_2900195_28101;
USFLD_SIZE=0;
**PART3;
**END_OF_HEADER*****************************************************************
T51 : TRANSMIT FILE created by modeller version 290019523 SCH_2900195_28101_1300
6203 0 12 33 CCCCCCI4 mesh1006 0 I8 polyline1008 0 CCCCCCCDI5 owner1040 0 CCCCCC
I13 boundary_mesh1006 0 I17 boundary_polyline1008 0 CCCA16 index_map_offset0 0 1
 dA9 index_map82 0 A17 node_id_index_map82 0 A20 schema_embedding_map82 0 A5 chi
ld12 0 A14 lowest_node_id0 0 1 dZ1 1953 0 2 0 0 0 0 0 0 1e3 1e-8 0 3 0 1 0 1 1 4
 5 6 7 0 0 8 9 10 0 0 0 0 0 0 70 11 CI9 list_type0 0 1 uI10 notransmit0 0 1 lCCC
DCCDI12 finger_index0 0 1 dI12 finger_block1012 0 CZ2 0 4 T1 0 0 2 20 1 11 11 13
 255 4 334 0 1 0 12 0 0 13 0 50 255 5 1787 0 14 15 0 0 -.03015 -.023 .002 120850
712644995e-30 -.707106781186547 .707106781186549 -1 -1709087168450055e-31 0 30 2
55 6 1762 0 9 16 0 0 -.03015 -.00985 .01515 0 -.707106781186549 -.70710678118654
7 29 255 7 1613 0 10 17 0 .00985 -.025 0 19 8 CCCCCCCA5 owner12 0 Z8 100 0 1 13
 0 18 V0 16 255 9 1629 0 ?19 0 20 6 0 0 1 18 255 10 1611 0 21 0 22 7 ?1 17 255 2
1 0 23 24 25 10 26 27 0 28 -18 22 1607 0 29 10 30 17 ?1 17 29 0 31 19 32 22 33 3
4 0 24 +18 30 1598 0 19 22 35 36 ?1 29 17 1609 0 22 36 7 .03015 -.025 0 29 36 16
00 0 30 37 17 .03015 -.023 .002 29 37 1597 0 35 38 36 .00985 -.023 .002 18 35 15
95 0 39 30 40 37 ?1 29 38 1385 0 40 41 37 .03015 -.0102 .007 18 40 1383 0 42 35
 43 38 ?1 29 41 1382 0 43 44 38 .0251 -.0102 .007 18 43 1380 0 45 40 46 41 ?1 29
 44 1374 0 46 47 41 .0251 -.0167 .007 18 46 1372 0 48 43 49 44 ?1 29 47 1371 0 4
9 50 44 .03015 -.0167 .007 18 49 1369 0 51 46 52 47 ?1 29 50 1360 0 52 53 47 .02
71 -.0122 .005 18 52 1358 0 54 49 55 50 ?1 29 53 1357 0 55 56 50 .0271 -.0147 .0
05 18 55 1355 0 57 52 58 53 ?1 29 56 1354 0 58 59 53 .03015 -.0122 .005 18 58 13
52 0 60 55 61 56 ?1 29 59 1351 0 61 62 56 .03015 -.0147 .005 18 61 1349 0 63 58
 64 59 ?1 29 62 1343 0 64 65 59 .00985 -.0167 .007 18 64 1341 0 66 61 67 62 ?1 2
9 65 1335 0 67 68 62 .0149 -.0167 .007 18 67 1333 0 69 64 70 65 ?1 29 68 1327 0
 70 71 65 .0149 -.0102 .007 18 70 1325 0 72 67 73 68 ?1 29 71 1324 0 73 74 68 .0
0985 -.0102 .007 18 73 1322 0 75 70 76 71 ?1 29 74 1315 0 76 77 71 .0129 -.0122
 .005 18 76 1313 0 78 73 79 74 ?1 29 77 1311 0 79 80 74 .0129 -.0147 .005 18 79
 1309 0 81 76 82 77 ?1 29 80 1308 0 82 83 77 .00985 -.0122 .005 18 82 1306 0 84
 79 85 80 ?1 29 83 1305 0 85 86 80 .00985 -.0147 .005 18 85 1303 0 87 82 88 83 ?
1 29 86 991 0 88 89 83 .00885 0 .022 18 88 989 0 90 85 91 86 ?1 29 89 988 0 91 9
2 86 .00985 -.001 .022 18 91 986 0 93 88 94 89 ?1 29 92 980 0 94 95 89 .03115 0
 .022 18 94 978 0 96 91 97 92 ?1 29 95 967 0 97 98 92 .00985 -.001 0 18 97 965 0
 25 94 99 95 ?1 29 98 964 0 99 100 95 .00885 0 0 18 99 962 0 101 97 102 98 ?1 29
 100 961 0 102 103 98 .03115 0 0 18 102 959 0 104 99 105 100 ?1 29 103 950 0 105
 106 100 .03015 -.001 .022 18 105 948 0 107 102 108 103 ?1 29 106 947 0 108 109
 103 .03015 -.001 0 18 108 945 0 110 105 111 106 ?1 29 109 250 0 112 113 106 .04
 0 0 18 112 217 0 114 115 116 109 ?1 29 113 251 0 116 117 109 .04 -.028 0 18 116
 218 0 118 112 119 113 ?1 29 117 252 0 119 120 113 293915231795365e-32 -.028 0 1
8 119 219 0 121 116 122 117 ?1 29 120 253 0 122 123 117 0 0 0 18 122 220 0 124 1
19 125 120 ?1 29 123 84 0 111 126 120 .00985 -.023 .022 18 111 82 0 127 108 128
 123 ?1 29 126 81 0 128 129 123 .03015 -.023 .022 18 128 79 0 130 111 131 126 ?1
 29 129 63 0 131 132 126 .04 0 .022 18 131 61 0 133 128 134 129 ?1 29 132 60 0 1
34 135 129 .04 -.028 .022 18 134 58 0 136 131 137 132 ?1 29 135 57 0 137 138 132
 293915231795365e-32 -.028 .022 18 137 55 0 139 134 115 135 ?1 29 138 54 0 115 1
40 135 0 0 .022 18 115 52 0 141 137 112 138 ?1 29 140 863 0 142 143 138 .00985 -
.0167 .017 18 142 588 0 144 145 146 140 ?1 29 143 864 0 145 147 140 .0149 -.0167
 .017 18 145 589 0 148 149 142 143 ?1 29 147 867 0 146 150 143 .00985 -.0102 .01
7 18 146 585 0 151 142 152 147 ?1 29 150 868 0 152 153 147 .0149 -.0102 .017 18
 152 586 0 154 146 0 150 ?1 29 153 871 0 155 156 150 .0251 -.0167 .017 18 155 64
1 0 157 125 158 153 ?1 29 156 872 0 125 159 153 .03015 -.0167 .017 18 125 642 0
 160 122 155 156 ?1 29 159 875 0 158 161 156 .0251 -.0102 .017 18 158 638 0 162
 155 149 159 ?1 29 161 876 0 149 0 159 .03015 -.0102 .017 18 149 639 0 163 158 1
45 161 ?1 17 163 0 164 162 160 149 165 166 0 167 +15 255 164 652 0 160 168 0 17
 162 0 164 157 163 158 167 169 0 170 +17 160 0 164 163 157 125 171 172 0 165 +17
 165 0 173 174 175 125 163 166 0 176 -16 166 619 0 ?163 177 169 178 0 0 1 17 167
 0 179 180 181 149 162 169 0 175 -15 179 288 0 180 182 0 17 180 0 179 45 167 40
 175 183 0 184 +17 181 0 179 167 45 158 185 186 0 0 -16 169 630 0 ?162 166 187 1
88 0 0 1 17 175 0 173 165 42 149 180 183 0 0 -15 173 909 0 175 189 31 17 42 0 17
3 175 190 40 191 192 0 180 +16 183 548 0 ?180 193 186 194 0 0 1 16 193 266 0 ?19
5 196 183 197 0 0 1 16 186 532 0 ?185 183 198 199 0 0 1 30 194 328 0 183 199 197
 0 +.03015 -.0102 .022 0 0 -1 30 199 327 0 186 200 194 0 +.0251 -.0102 .022 0 0
 -1 30 197 330 0 193 194 201 0 +.04 0 .022 0 0 -1 30 201 331 0 196 197 202 0 +.0
4 -.028 .022 0 0 -1 16 196 267 0 ?203 204 193 201 0 0 1 30 202 332 0 204 201 205
 0 +293915231795365e-32 -.028 .022 0 0 -1 16 204 268 0 ?206 207 196 202 0 0 1 30
 205 333 0 207 202 208 0 +0 0 .022 0 0 -1 16 207 269 0 ?209 210 204 205 0 0 1 30
 208 953 0 210 205 211 0 +.03015 -.001 .022 0 0 -1 16 210 951 0 ?32 212 207 208
 0 0 1 30 211 970 0 212 208 213 0 -.00885 0 0 -.707106781186548 .707106781186548
 0 16 212 968 0 ?25 214 210 211 0 0 1 30 213 975 0 214 211 215 0 -.03015 -.001 0
 -.707106781186548 -.707106781186548 0 16 214 973 0 ?104 216 212 213 0 0 1 30 21
5 983 0 216 213 217 0 +.03115 0 .022 0 0 1 16 216 981 0 ?96 218 214 215 0 0 1 30
 217 994 0 218 215 219 0 -.004425 .004425 .022 .707106781186548 -.70710678118654
8 0 16 218 992 0 ?90 220 216 217 0 0 1 30 219 999 0 220 217 221 0 -.015575 -.015
575 .022 .707106781186548 .707106781186548 0 16 220 997 0 ?107 222 218 219 0 0 1
 30 221 1004 0 222 219 223 0 +.00885 0 .022 0 0 -1 16 222 1002 0 ?224 225 220 22
1 0 0 1 30 223 1009 0 225 221 226 0 +.00985 -.001 .022 0 0 1 16 225 1007 0 ?93 2
27 222 223 0 0 1 31 255 226 1180 0 228 223 229 0 -.004425 -.004 .011 0 1 0 0 0 1
 .002 16 228 1209 0 ?230 231 232 226 0 0 1 31 229 1186 0 231 226 233 0 -.035575
 -.004 .011 0 1 0 0 0 1 .002 16 231 1237 0 ?234 235 228 229 0 0 1 30 233 1312 0
 227 229 236 0 +.00985 -.0147 .005 -1 0 0 16 227 1310 0 ?87 237 225 233 0 0 1 30
 236 1316 0 237 233 238 0 +.0129 -.0238065110989852 .005 0 -1 0 16 237 1314 0 ?8
1 239 227 236 0 0 1 30 238 1319 0 239 236 240 0 +.00985 -.0122 .005 1 0 0 16 239
 1317 0 ?241 242 237 238 0 0 1 30 240 1330 0 242 238 243 0 +.0149 -.0102 .007 -1
 0 0 16 242 1328 0 ?75 244 239 240 0 0 1 30 243 1338 0 244 240 245 0 +.0149 -.01
67 .007 0 1 0 16 244 1336 0 ?72 246 242 243 0 0 1 30 245 1346 0 246 243 247 0 +.
00985 -.0167 .007 1 0 0 16 246 1344 0 ?69 248 244 245 0 0 1 30 247 1361 0 248 24
5 249 0 +.0271 -.0238065110989852 .005 0 1 0 16 248 1359 0 ?54 250 246 247 0 0 1
 30 249 1363 0 250 247 251 0 +.0251 -.0122 .005 1 0 -343509599203328e-30 16 250
 1362 0 ?60 252 248 249 0 0 1 30 251 1366 0 252 249 253 0 +.0251 -.0147 .005 -1
 0 343509599203328e-30 16 252 1364 0 ?254 255 250 251 0 0 1 30 253 1377 0 255 25
1 256 0 +.0251 -.0167 .007 1 0 -343509599203328e-30 16 255 1375 0 ?51 257 252 25
3 0 0 1 30 256 1388 0 257 253 258 0 +.03015 -.0102 .007 -1 0 343509599203328e-30
 16 257 1386 0 ?45 259 255 256 0 0 1 30 258 1393 0 259 256 260 0 +.0251 -.0102 .
007 0 -1 0 16 259 1391 0 ?48 261 257 258 0 0 1 30 260 1424 0 261 258 262 0 -.009
85 -.0027 .0145 0 .707106781186546 .707106781186549 16 261 1396 0 ?84 263 259 26
0 0 0 1 30 262 1425 0 263 260 264 0 -.00985 -.02095 .01125 0 .707106781186546 -.
707106781186549 16 263 1403 0 ?66 265 261 262 0 0 1 30 264 1426 0 265 262 266 0
 -.03015 -.0242 .0145 0 -.707106781186546 .707106781186549 16 265 1410 0 ?63 192
 263 264 0 0 1 30 266 1427 0 192 264 267 0 -.03015 -.00595 .01125 0 -.7071067811
86546 -.707106781186549 16 192 1417 0 ?42 268 265 266 0 0 1 30 267 1475 0 269 26
6 270 0 -.01273333333333334 -.01236666666666666 .00483333333333333 .577350269189
625 .577350269189625 .577350269189627 16 269 1462 0 ?78 271 272 267 0 0 1 30 270
 1474 0 271 267 273 0 -.01188333333333334 -.01368333333333334 .00398333333333333
 .577350269189625 -.577350269189625 .577350269189627 16 271 1457 0 ?274 275 269
 270 0 0 1 30 273 1518 0 276 270 277 0 -.02406449630033825 -.01773550369966175 .
00803550369966174 -.577350269189625 -.577350269189625 .577350269189627 16 276 15
05 0 ?57 272 0 273 0 0 1 30 277 1517 0 272 273 278 0 +.03096883703299505 -.01606
883703299505 .001131162967004924 .577350269189625 -.577350269189625 -.5773502691
89627 16 272 1500 0 ?279 269 276 277 0 0 1 30 278 1603 0 268 277 280 0 +.03015 -
.023 .002 -1 -1709087168450055e-31 0 16 268 1601 0 ?281 282 192 278 0 0 1 30 280
 1614 0 282 278 16 0 +427271792112514e-32 -.025 0 1 1709087168450055e-31 0 16 28
2 1612 0 ?24 20 268 280 0 0 1 30 16 1761 0 20 280 6 0 -.00985 -.0066 .0184 0 .70
7106781186549 .707106781186547 16 20 1621 0 ?28 9 282 16 0 0 1 17 28 0 283 26 28
4 10 39 20 0 285 +15 283 270 0 26 286 0 17 26 0 283 93 28 97 21 27 0 287 +17 284
 0 283 28 288 35 289 290 0 0 +17 39 0 291 292 285 35 28 20 0 281 -17 285 0 291 3
9 293 10 24 282 0 0 -15 291 1776 0 293 14 0 17 293 0 291 285 292 22 19 9 0 0 -17
 24 0 23 33 21 22 285 282 0 293 +15 23 140 0 21 294 0 17 33 0 23 104 24 108 29 3
4 0 0 -17 104 0 23 295 33 102 110 214 0 296 +16 34 946 0 ?29 27 297 298 0 0 1 16
 27 141 0 ?26 299 34 300 0 0 1 16 297 185 0 ?296 34 301 302 0 0 1 30 298 228 0 3
4 302 300 0 +.03015 -.0167 0 0 -1 0 30 302 233 0 297 303 298 0 +.04 0 0 -1 0 0 3
0 300 222 0 27 298 304 0 +.00985 -.0102 0 0 1 0 30 304 319 0 305 300 306 0 +.009
85 -.0102 .022 0 0 -1 16 305 456 0 ?307 308 309 304 0 0 1 30 306 320 0 308 304 3
10 0 +.0149 -.0102 .022 0 0 -1 16 308 462 0 ?311 312 305 306 0 0 1 30 310 321 0
 312 306 313 0 +.0149 -.0167 .022 0 0 -1 16 312 478 0 ?314 315 308 310 0 0 1 30
 313 322 0 315 310 316 0 +.00985 -.0167 .022 0 0 -1 16 315 494 0 ?317 290 312 31
3 0 0 1 30 316 323 0 290 313 318 0 +.00985 -.023 .022 0 0 -1 16 290 259 0 ?284 3
19 315 316 0 0 1 30 318 324 0 319 316 320 0 +.03015 -.023 .022 0 0 -1 16 319 260
 0 ?321 322 290 318 0 0 1 30 320 325 0 322 318 200 0 +.03015 -.0167 .022 0 0 -1
 16 322 510 0 ?174 198 319 320 0 0 1 30 200 326 0 198 320 199 0 +.0251 -.0167 .0
22 0 0 -1 16 198 516 0 ?323 186 322 200 0 0 1 17 323 0 324 51 171 46 325 198 0 3
26 +15 324 284 0 323 327 0 17 51 0 324 176 323 49 326 255 0 174 +17 171 0 324 32
3 176 155 160 172 0 325 -17 325 0 328 170 48 155 323 198 0 0 -17 326 0 329 57 33
0 46 51 255 0 331 -15 329 1493 0 330 332 0 17 57 0 329 333 326 55 331 276 0 334
 +17 330 0 329 326 333 49 63 265 0 0 -17 331 0 335 336 334 46 57 276 0 0 -15 335
 1491 0 279 337 0 17 336 0 335 279 331 43 48 259 0 0 -17 334 0 335 331 279 55 54
 248 0 254 -17 279 0 335 334 336 52 338 272 0 0 +17 54 0 339 60 254 52 334 248 0
 340 +17 254 0 339 54 341 55 333 252 0 0 +15 339 1356 0 341 342 0 17 341 0 339 2
54 60 61 190 343 0 333 -17 333 0 329 330 57 61 254 252 0 0 -17 60 0 339 341 54 5
8 340 250 0 190 +17 190 0 173 42 63 58 341 343 0 191 +16 343 1350 0 ?190 344 172
 345 0 0 1 16 344 1304 0 ?346 347 343 348 0 0 1 16 172 634 0 ?160 343 177 349 0
 0 1 30 345 845 0 343 350 349 0 +.03015 -.0238065110989852 .005 0 1 0 31 350 115
4 0 235 351 345 0 +.035575 -.028 .011 0 1 0 0 0 1 .002 30 349 841 0 172 345 188
 0 +.0251 -.0167 .017 1 0 0 30 188 836 0 169 349 352 0 +.0251 -.0102 .017 -1 0 0
 30 352 835 0 177 188 178 0 +.0251 -.0238065110989852 .017 0 1 0 16 177 618 0 ?1
70 172 166 352 0 0 1 30 178 834 0 166 352 353 0 +.03015 -.0238065110989852 .017
 0 1 0 30 353 829 0 187 178 354 0 +.00985 -.0167 .017 1 0 0 16 187 581 0 ?148 16
9 355 353 0 0 1 30 354 824 0 356 353 357 0 +.00985 -.0102 .017 -1 0 0 16 356 577
 0 ?358 359 360 354 0 0 1 30 357 823 0 355 354 361 0 +.00985 -.0238065110989852
 .017 0 1 0 16 355 565 0 ?151 187 359 357 0 0 1 30 361 822 0 359 357 348 0 +.014
9 -.0238065110989852 .017 0 1 0 16 359 566 0 ?154 355 356 361 0 0 1 30 348 808 0
 344 361 362 0 +.00985 -.0238065110989852 .005 0 1 0 30 362 5 0 299 348 363 0 +.
00985 0 .022 -1 0 0 16 299 990 0 ?141 364 27 362 0 0 1 30 363 8 0 364 362 365 0
 +0 0 .022 1049697256412016e-31 -1 0 16 364 7 0 ?139 366 299 363 0 0 1 30 365 11
 0 366 363 367 0 +293915231795365e-32 -.028 .022 1 0 0 16 366 10 0 ?136 368 364
 365 0 0 1 30 367 14 0 368 365 369 0 +.04 -.028 .022 0 1 0 16 368 13 0 ?133 370
 366 367 0 0 1 30 369 17 0 370 367 371 0 +.04 0 .022 -1 0 0 16 370 16 0 ?372 373
 368 369 0 0 1 30 371 20 0 373 369 374 0 +.03015 0 .022 0 -1 0 16 373 949 0 ?130
 375 370 371 0 0 1 30 374 35 0 375 371 376 0 +.03015 -.023 .022 -1 -170908716845
0055e-31 0 16 375 34 0 ?127 309 373 374 0 0 1 30 376 38 0 309 374 377 0 +.00985
 -.023 .022 0 1 0 16 309 37 0 ?378 305 375 376 0 0 1 30 377 237 0 347 376 379 0
 +.00985 0 0 -1 0 0 16 347 963 0 ?124 380 344 377 0 0 1 30 379 236 0 380 377 381
 0 +0 0 0 1049697256412016e-31 -1 0 16 380 197 0 ?121 382 347 379 0 0 1 30 381 2
35 0 382 379 303 0 +293915231795365e-32 -.028 0 1 0 0 16 382 193 0 ?118 301 380
 381 0 0 1 30 303 234 0 301 381 302 0 +.04 -.028 0 0 1 0 16 301 189 0 ?114 297 3
82 303 0 0 1 17 114 0 383 384 203 112 385 301 0 195 +15 383 294 0 114 386 0 17 3
84 0 383 387 114 131 195 193 0 388 -17 203 0 383 114 387 116 389 196 0 385 +17 3
85 0 23 390 295 116 114 301 0 0 -17 195 0 391 296 388 112 384 193 0 295 +15 391
 292 0 296 392 0 17 296 0 391 96 195 102 295 297 0 393 +17 388 0 391 195 96 131
 372 370 0 0 -17 295 0 23 385 104 112 296 297 0 0 -17 96 0 391 388 296 94 393 21
6 0 372 +17 372 0 394 107 133 94 388 370 0 395 +15 394 451 0 372 396 0 17 107 0
 394 130 372 105 395 220 0 397 +17 133 0 394 372 136 131 387 368 0 384 +17 395 0
 398 393 399 94 107 220 0 0 -15 398 1028 0 395 400 0 17 393 0 398 110 395 102 96
 216 0 0 -17 399 0 398 395 110 105 32 210 0 0 -17 110 0 398 399 393 108 104 214
 0 32 -17 32 0 31 29 397 108 399 210 0 33 +15 31 282 0 397 189 0 17 397 0 31 32
 401 105 130 373 0 399 -17 401 0 31 397 19 128 321 319 0 402 -17 130 0 394 127 1
07 128 397 373 0 401 +17 127 0 394 378 130 111 402 375 0 289 +17 378 0 394 90 12
7 91 288 309 0 403 +17 402 0 404 321 289 128 127 375 0 0 -17 289 0 404 402 281 1
11 284 290 0 288 -15 404 280 0 321 405 0 17 281 0 404 289 321 35 292 268 0 284 +
17 288 0 283 284 93 111 378 309 0 0 -17 93 0 283 288 26 91 287 225 0 378 +17 287
 0 406 101 403 97 93 225 0 0 -15 406 1049 0 403 407 0 17 101 0 406 408 287 99 25
 212 0 224 -17 403 0 406 287 408 91 90 218 0 0 -17 408 0 406 403 101 88 224 222
 0 0 -17 90 0 394 141 378 88 403 218 0 409 +17 141 0 394 139 90 115 409 299 0 41
0 +17 409 0 411 224 412 88 141 299 0 408 -15 411 300 0 409 413 0 17 224 0 411 12
4 409 99 408 222 0 414 +17 412 0 411 409 124 115 209 207 0 0 -17 124 0 411 412 2
24 122 414 347 0 415 +17 209 0 416 121 410 122 412 207 0 0 +15 416 298 0 121 417
 0 17 121 0 416 418 209 119 415 380 0 206 +17 410 0 416 209 418 115 139 364 0 41
2 -17 418 0 416 410 121 137 206 204 0 419 -17 139 0 394 136 141 137 410 364 0 41
8 +17 136 0 394 133 139 134 419 366 0 389 +17 419 0 420 206 389 137 136 366 0 0
 -17 389 0 420 419 118 134 203 196 0 387 -15 420 296 0 118 421 0 17 118 0 420 38
9 206 116 390 382 0 203 +17 387 0 383 203 384 134 133 368 0 0 -17 206 0 420 118
 419 119 418 204 0 390 +17 390 0 23 415 385 119 118 382 0 0 -17 415 0 23 414 390
 122 121 380 0 209 -17 414 0 23 25 415 99 124 347 0 0 -17 25 0 23 21 414 97 101
 212 0 26 +14 255 421 297 422 ?386 417 423 4 424 -0 0 386 417 18 81 255 1 422 19
19 425 421 426 0 0 427 428 14 386 295 427 ?392 421 383 4 429 -0 0 392 421 18 14
 417 299 430 ?421 413 416 4 431 -0 0 421 413 18 15 423 1096 0 432 421 433 50 424
 315 0 421 429 431 0 +293915231795365e-32 -.028 .022 0 1 0 0 0 1 13 18 101 0 0 0
 0 0 0 8 12 14 12 1187 434 ?435 0 436 4 437 -0 0 435 0 18 81 1 434 1922 425 12 4
38 0 430 439 440 14 435 1181 439 ?413 12 441 4 442 -0 0 413 12 18 15 436 1135 0
 443 12 444 51 255 437 1147 0 12 442 445 0 +.035575 -.028 .011 0 1 0 .002 0 0 1
 51 442 1150 0 435 446 437 0 +.004425 -.028 .011 0 1 0 .002 0 0 1 50 445 802 0 3
42 437 447 0 +.0251 -.0238065110989852 .005 343509599203328e-30 0 1 1 0 -3435095
99203328e-30 14 342 710 448 ?168 449 339 4 445 -0 0 168 449 18 50 447 798 0 168
 445 450 0 +.0251 -.0238065110989852 .017 0 0 -1 -1 0 0 14 168 649 451 ?452 342
 164 4 447 -0 0 452 342 18 50 450 792 0 452 447 453 0 +.00985 -.0238065110989852
 .017 0 0 -1 -1 0 0 14 452 596 454 ?400 168 455 4 450 -0 0 400 168 18 50 453 784
 0 449 450 456 0 +.00985 -.0238065110989852 .005 0 0 1 1 0 0 14 449 763 457 ?342
 294 458 4 453 -0 0 342 294 18 50 456 2 0 396 453 459 0 +0 0 .022 0 0 1 1 0 0 14
 396 1 460 ?294 286 394 4 456 +0 0 294 286 18 50 459 221 0 294 456 461 0 +0 0 0
 0 0 1 1 0 0 14 294 139 462 ?449 396 23 4 459 -0 0 449 396 18 50 461 302 0 286 4
59 463 0 +.00985 -.0102 .022 -1 0 0 0 0 1 14 286 271 464 ?396 465 466 4 461 -0 0
 396 465 18 50 463 303 0 465 461 467 0 +.0149 -.0102 .022 0 -1 0 0 0 -1 14 465 2
73 468 ?286 469 470 4 463 -0 0 286 469 18 50 467 304 0 469 463 471 0 +.0149 -.01
67 .022 -1 0 0 0 0 1 14 469 275 472 ?465 473 474 4 467 -0 0 465 473 18 50 471 30
5 0 473 467 475 0 +.00985 -.0167 .022 0 1 0 0 0 1 14 473 277 476 ?469 405 477 4
 471 -0 0 469 405 18 50 475 307 0 405 471 478 0 +.03015 -.023 .022 1709087168450
055e-31 -1 0 1 1709087168450055e-31 0 14 405 281 479 ?473 189 404 4 475 -0 0 473
 189 18 50 478 308 0 189 475 480 0 +.03015 -.0167 .022 1 0 0 0 0 -1 14 189 283 4
81 ?405 327 173 4 478 -0 0 405 327 18 50 480 309 0 327 478 482 0 +.0251 -.0167 .
022 0 1 0 0 0 1 14 327 285 483 ?189 484 324 4 480 -0 0 189 484 18 50 482 310 0 4
84 480 485 0 +.0251 -.0102 .022 1 0 0 0 0 -1 14 484 287 486 ?327 182 328 4 482 -
0 0 327 182 18 50 485 311 0 182 482 487 0 +.03015 -.0102 .022 0 -1 0 0 0 -1 14 1
82 289 488 ?484 392 179 4 485 -0 0 484 392 18 50 487 313 0 392 485 429 0 +.04 0
 .022 0 -1 0 0 0 -1 14 392 293 489 ?182 386 490 4 487 -0 0 182 386 18 50 429 314
 0 386 487 424 0 +.04 -.028 .022 -1 0 0 0 0 1 81 1 489 1939 425 392 491 0 488 49
2 493 15 490 1190 0 494 392 391 17 494 0 490 494 494 0 495 275 0 0 -17 495 0 496
 495 495 0 494 275 0 0 +16 275 1230 0 ?495 497 271 498 0 0 1 16 497 1234 0 ?499
 500 275 501 0 0 1 31 498 1269 0 275 501 351 0 +.035575 0 .011 0 1 0 0 0 1 .0037
5 31 501 1270 0 497 502 498 0 +.035575 -.004 .011 0 1 0 0 0 1 .00375 31 351 1156
 0 360 498 350 0 +.004425 -.028 .011 0 1 0 0 0 1 .002 16 360 1108 0 ?432 356 235
 351 0 0 1 17 432 0 423 432 432 0 503 360 0 0 +16 235 1126 0 ?504 360 231 350 0
 0 1 17 504 0 433 504 504 0 443 235 0 0 +15 433 1090 0 504 421 420 17 443 0 436
 443 443 0 504 235 0 0 -17 503 0 441 503 503 0 432 360 0 0 -15 441 1117 0 503 43
5 505 15 505 1179 0 506 435 0 17 506 0 505 506 506 0 230 228 0 0 -17 230 0 507 2
30 230 0 506 228 0 0 +15 507 1213 0 230 508 0 14 508 1210 492 ?509 407 510 4 511
 +0 0 509 407 18 81 1 492 1940 425 508 512 0 489 513 514 14 509 1218 513 ?515 50
8 516 4 517 -0 0 515 508 18 14 407 1048 518 ?508 400 406 4 519 +0 0 508 400 18 1
5 510 1212 0 520 508 507 50 511 1266 0 508 0 517 0 +.004425 -.004 .011 0 1 0 0 0
 1 51 517 1264 0 509 511 521 0 +.004425 -.004 .011 0 1 0 .00375 0 0 1 50 521 126
3 0 515 517 446 0 +.035575 -.004 .011 0 1 0 0 0 1 14 515 1238 522 ?523 509 524 4
 521 +0 0 523 509 18 51 446 1261 0 523 521 442 0 +.035575 -.004 .011 0 1 0 .0037
5 0 0 1 14 523 1246 525 ?526 515 527 4 446 -0 0 526 515 18 81 1 525 1944 425 523
 528 0 522 529 530 14 526 1445 529 ?531 523 532 4 533 +0 0 531 523 18 15 527 124
9 0 534 523 496 17 534 0 527 534 534 0 499 497 0 0 -15 496 1250 0 495 523 0 17 4
99 0 524 499 499 0 534 497 0 0 +15 524 1240 0 499 515 535 15 535 1241 0 234 515
 0 17 234 0 535 234 234 0 536 231 0 0 +17 536 0 444 536 536 0 234 231 0 0 -15 44
4 1185 0 536 12 0 81 1 529 1945 425 526 537 0 525 538 539 14 531 1447 538 ?540 5
26 541 4 542 +0 0 540 526 18 15 532 1446 0 543 526 0 50 533 1471 0 526 542 544 0
 -.00985 -.0147 .005 0 .707106781186549 .707106781186546 -1 0 0 50 542 1472 0 53
1 545 533 0 -.0149 -.0167 .007 -.707106781186549 0 .707106781186546 0 1 0 50 544
 1516 0 332 533 546 0 -.0251 -.0147 .005 242897966999346e-30 .707106781186549 .7
07106781186546 -1 0 343509599203328e-30 14 332 1492 547 ?14 337 329 4 544 +0 0 1
4 337 18 50 546 1515 0 337 544 15 0 -.0271 -.0238065110989852 .005 .707106781186
549 0 .707106781186547 0 1 0 14 337 1490 548 ?332 549 335 4 546 +0 0 332 549 18
 50 15 1514 0 549 546 5 0 -.0251 -.0122 .005 242897966999346e-30 -.7071067811865
49 .707106781186546 1 0 -343509599203328e-30 14 549 1488 550 ?337 540 551 4 15 +
0 0 337 540 18 81 1 550 1949 425 549 552 0 548 553 554 14 540 1449 553 ?549 531
 555 4 545 +0 0 549 531 18 15 551 1489 0 191 549 0 17 191 0 551 340 184 58 42 19
2 0 0 -17 340 0 551 338 191 52 60 250 0 279 -17 184 0 551 191 338 40 45 257 0 0
 -17 338 0 551 184 340 43 279 272 0 336 -17 45 0 179 181 180 43 184 257 0 185 +1
7 185 0 328 48 170 43 181 186 0 338 +15 328 286 0 185 484 0 17 48 0 328 325 185
 46 336 259 0 323 +17 170 0 328 185 325 158 157 177 0 181 +17 157 0 164 160 162
 155 170 177 0 171 -81 1 553 1950 425 540 556 0 550 557 558 15 555 1450 0 559 54
0 0 50 545 1473 0 540 519 542 0 -.00985 -.0122 .005 0 -.707106781186549 .7071067
81186546 1 0 0 50 519 1060 0 407 560 545 0 -.00885 0 .022 -.707106781186548 -.70
7106781186548 0 0 0 -1 50 560 1039 0 400 561 519 0 -.03015 -.001 .022 .707106781
186548 -.707106781186548 0 0 0 -1 14 400 1027 557 ?407 452 398 4 560 +0 0 407 45
2 18 50 561 317 0 413 431 560 0 +.00985 0 .022 0 -1 0 0 0 -1 14 413 301 562 ?417
 435 563 4 561 -0 0 417 435 18 50 431 316 0 417 424 561 0 +0 0 .022 1 1049697256
412016e-31 0 -1049697256412016e-31 1 0 81 1 562 1952 425 413 564 0 557 565 566 1
5 563 1196 0 567 413 411 17 567 0 563 567 567 0 568 500 0 0 -17 568 0 569 568 56
8 0 567 500 0 0 +16 500 1202 0 ?568 232 497 502 0 0 1 16 232 1206 0 ?520 228 500
 570 0 0 1 31 502 1271 0 500 570 501 0 +.004425 0 .011 0 1 0 0 0 1 .00375 31 570
 1272 0 232 0 502 0 +.004425 -.004 .011 0 1 0 0 0 1 .00375 17 520 0 510 520 520
 0 571 232 0 0 +17 571 0 516 571 571 0 520 232 0 0 -15 516 1221 0 571 509 569 15
 569 1222 0 568 509 0 80 255 1 425 572 573 9000 1 1 1 1 1 1 1 1 0 FFFFTFTFFFFFFF
1 81 1 564 1808 574 413 0 562 575 576 577 81 1 557 1951 425 400 578 0 553 562 57
9 81 1 565 1953 425 14 580 0 562 0 581 82 255 1 566 89063617 14 14 1775 565 ?0 3
32 291 4 5 +0 0 0 332 18 81 1 580 1840 574 14 0 565 582 0 583 82 1 581 385155268
 80 1 574 0 584 8001 0 0 0 0 3 5 0 0 0 FFFFTFTFFFFFFF2 81 1 582 1839 574 332 0 5
47 585 580 586 83 255 3 583 .96078431372549 1 .184313725490196 81 1 547 1947 425
 332 582 0 538 548 587 81 1 585 1838 574 337 0 548 552 582 588 83 3 586 .9607843
1372549 1 .184313725490196 81 1 548 1948 425 337 585 0 547 550 589 81 1 552 1837
 574 549 0 550 556 585 590 83 3 588 .96078431372549 1 .184313725490196 81 1 556
 1836 574 540 0 553 591 552 592 83 3 590 .96078431372549 1 .184313725490196 81 1
 591 1835 574 531 0 538 537 556 593 83 3 592 .96078431372549 1 .184313725490196
 81 1 538 1946 425 531 591 0 529 547 594 81 1 537 1834 574 526 0 529 528 591 595
 83 3 593 .96078431372549 1 .184313725490196 81 1 528 1833 574 523 0 525 596 537
 597 83 3 595 .96078431372549 1 .184313725490196 81 1 596 1832 574 515 0 522 598
 528 599 83 3 597 .96078431372549 1 .184313725490196 81 1 522 1943 425 515 596 0
 518 525 600 81 1 598 1831 574 509 0 513 512 596 601 83 3 599 .96078431372549 1
 .184313725490196 81 1 513 1941 425 509 598 0 492 518 602 81 1 512 1830 574 508
 0 492 603 598 604 83 3 601 .96078431372549 1 .184313725490196 81 1 603 1829 574
 407 0 518 578 512 605 83 3 604 .96078431372549 1 .184313725490196 81 1 518 1942
 425 407 603 0 513 522 606 81 1 578 1828 574 400 0 557 607 603 608 83 3 605 .960
78431372549 1 .184313725490196 81 1 607 1827 574 452 0 454 609 578 610 83 3 608
 .96078431372549 1 .184313725490196 81 1 454 1926 425 452 607 0 451 457 611 81 1
 609 1826 574 168 0 451 612 607 613 83 3 610 .96078431372549 1 .184313725490196
 81 1 451 1925 425 168 609 0 448 454 614 81 1 612 1825 574 342 0 448 615 609 616
 83 3 613 .96078431372549 1 .184313725490196 81 1 448 1924 425 342 612 0 439 451
 617 81 1 615 1824 574 449 0 457 618 612 619 83 3 616 .96078431372549 1 .1843137
25490196 81 1 457 1927 425 449 615 0 454 460 620 81 1 618 1823 574 294 0 462 621
 615 622 83 3 619 .96078431372549 1 .184313725490196 81 1 462 1929 425 294 618 0
 460 464 623 81 1 621 1822 574 396 0 460 624 618 625 83 3 622 .96078431372549 1
 .184313725490196 81 1 460 1928 425 396 621 0 457 462 626 81 1 624 1821 574 286
 0 464 627 621 628 83 3 625 .96078431372549 1 .184313725490196 81 1 464 1930 425
 286 624 0 462 468 629 81 1 627 1820 574 465 0 468 630 624 631 83 3 628 .9607843
1372549 1 .184313725490196 81 1 468 1931 425 465 627 0 464 472 632 81 1 630 1819
 574 469 0 472 633 627 634 83 3 631 .96078431372549 1 .184313725490196 81 1 472
 1932 425 469 630 0 468 476 635 81 1 633 1818 574 473 0 476 636 630 637 83 3 634
 .96078431372549 1 .184313725490196 81 1 476 1933 425 473 633 0 472 479 638 81 1
 636 1817 574 405 0 479 639 633 640 83 3 637 .96078431372549 1 .184313725490196
 81 1 479 1934 425 405 636 0 476 481 641 81 1 639 1816 574 189 0 481 642 636 643
 83 3 640 .96078431372549 1 .184313725490196 81 1 481 1935 425 189 639 0 479 483
 644 81 1 642 1815 574 327 0 483 645 639 646 83 3 643 .96078431372549 1 .1843137
25490196 81 1 483 1936 425 327 642 0 481 486 647 81 1 645 1814 574 484 0 486 648
 642 649 83 3 646 .96078431372549 1 .184313725490196 81 1 486 1937 425 484 645 0
 483 488 650 81 1 648 1813 574 182 0 488 491 645 651 83 3 649 .96078431372549 1
 .184313725490196 81 1 488 1938 425 182 648 0 486 489 652 81 1 491 1812 574 392
 0 489 653 648 654 83 3 651 .96078431372549 1 .184313725490196 81 1 653 1811 574
 386 0 427 426 491 655 83 3 654 .96078431372549 1 .184313725490196 81 1 427 1920
 425 386 653 0 422 430 656 81 1 426 1810 574 421 0 422 576 653 657 83 3 655 .960
78431372549 1 .184313725490196 81 1 576 1809 574 417 0 430 564 426 658 83 3 657
 .96078431372549 1 .184313725490196 81 1 430 1921 425 417 576 0 427 434 659 83 3
 658 .96078431372549 1 .184313725490196 82 1 659 88801465 82 1 656 88277177 82 1
 652 87490754 82 1 650 87228610 82 1 647 86966466 82 1 644 1041891524 82 1 641 1
041760452 82 1 638 85917890 82 1 635 85655746 82 1 632 85393602 82 1 629 1041236
164 82 1 626 62062781 82 1 623 1041105092 82 1 620 147456194 81 1 439 1923 425 4
35 575 0 434 448 660 82 1 617 158662850 81 1 575 1807 574 435 0 439 438 564 661
 82 1 660 336724161 81 1 438 1806 574 12 0 434 0 575 662 83 3 661 .9607843137254
9 1 .184313725490196 83 3 662 .96078431372549 1 .184313725490196 82 1 614 169541
820 82 1 611 180682940 82 1 606 286785725 82 1 602 330563777 82 1 600 339214529
 82 1 594 347734210 82 1 589 351928514 82 1 587 350421186 79 255 15 584 SDL/TYSA
_COLOUR82 1 579 284819645 83 3 577 .96078431372549 1 .184313725490196 79 14 573
 SWEntUnchanged17 559 0 555 663 664 73 84 261 0 0 -17 663 0 555 78 559 70 75 242
 0 665 -17 664 0 555 559 78 82 241 239 0 0 -17 84 0 466 666 307 82 559 261 0 346
 +15 466 905 0 667 286 283 17 666 0 466 66 84 85 346 344 0 543 -17 307 0 466 84
 151 73 668 305 0 559 +17 346 0 458 241 87 82 666 344 0 664 +15 458 766 0 346 44
9 0 17 241 0 458 81 346 76 664 239 0 0 +17 87 0 458 346 81 85 669 227 0 666 +17
 81 0 458 87 241 79 670 237 0 669 +17 669 0 532 671 543 79 87 227 0 274 -17 671
 0 532 672 669 67 274 271 0 673 -17 543 0 532 669 672 85 66 263 0 0 -17 274 0 54
1 670 673 79 671 271 0 0 +15 541 1448 0 274 531 0 17 670 0 541 665 274 76 81 237
 0 241 -17 673 0 541 274 665 67 72 244 0 0 -17 665 0 541 673 670 70 78 269 0 0 -
17 72 0 474 674 314 70 673 244 0 311 +15 474 274 0 314 469 0 17 674 0 474 675 72
 152 311 308 0 0 -17 314 0 474 72 675 67 676 312 0 671 +17 311 0 470 75 677 70 6
74 308 0 663 +15 470 272 0 311 465 0 17 75 0 470 668 311 73 663 242 0 307 +17 67
7 0 470 311 668 152 358 356 0 674 -17 668 0 470 677 75 146 307 305 0 0 -17 358 0
 455 144 154 146 677 356 0 668 +15 455 599 0 148 452 0 17 144 0 455 148 358 142
 151 355 0 678 -17 154 0 455 358 148 152 675 359 0 677 +17 148 0 455 154 144 145
 678 187 0 675 +17 675 0 474 314 674 145 154 359 0 676 -17 676 0 477 678 69 145
 314 312 0 0 -15 477 276 0 317 473 0 17 678 0 477 317 676 142 148 187 0 667 -17
 69 0 477 676 317 67 672 246 0 314 +17 317 0 477 69 678 64 667 315 0 672 +17 672
 0 532 543 671 64 69 246 0 0 -17 667 0 466 151 66 142 317 315 0 0 -17 151 0 466
 307 667 146 144 355 0 358 +17 66 0 466 667 666 64 543 263 0 317 +17 78 0 555 66
4 663 76 665 269 0 670 +82 1 558 346226882 82 1 554 353108162 82 1 539 348913858
 82 1 530 334561473 82 1 514 337707201 82 1 493 88015041 82 1 440 338231489 82 1
 428 88539327 17 321 0 404 281 402 30 401 319 0 292 +17 292 0 291 293 39 30 281
 268 0 0 -17 19 0 31 401 29 30 293 9 0 321 +17 63 0 173 190 174 61 330 265 0 341
 +17 174 0 173 63 165 49 176 322 0 330 +17 176 0 324 171 51 125 174 322 0 0 -19
 13 335 0 1 0 8 4 S0 74 4 CI16 index_map_offset0 0 1 dCCZ20 11 2 0 0 565 580 0 0
 0 0 0 0 0 0 0 0 0 0 0 0 0 0 0 0 1 0 
