**ABCDEFGHIJKLMNOPQRSTUVWXYZabcdefghijklmnopqrstuvwxyz**************************
**PARASOLID !"#$%&'()*+,-./:;<=>?@[\]^_`{|}~0123456789**************************
**PART1;
MC=AMD64;
MC_MODEL=Intel64 Family 6 Model 158 Stepping 9, GenuineIntel;
MC_ID=unknown;
OS=Windows_NT;
OS_RELEASE=unknown;
FRU=Parasolid Version 29.0, build 195, 12- 2-2016;
APPL=SOLIDWORKS 2017-2017109;
SITE=;
USER=unknown;
FORMAT=text;
GUISE=transmit;
KEY=Pièce1;
FILE=Pièce1.x_t;
DATE=Thu Sep 28 12:03:18 2023;
**PART2;
SCH=SCH_2900195_28101;
USFLD_SIZE=0;
**PART3;
**END_OF_HEADER*****************************************************************
T51 : TRANSMIT FILE created by modeller version 290019523 SCH_2900195_28101_1300
6203 0 12 33 CCCCCCI4 mesh1006 0 I8 polyline1008 0 CCCCCCCDI5 owner1040 0 CCCCCC
I13 boundary_mesh1006 0 I17 boundary_polyline1008 0 CCCA16 index_map_offset0 0 1
 dA9 index_map82 0 A17 node_id_index_map82 0 A20 schema_embedding_map82 0 A5 chi
ld12 0 A14 lowest_node_id0 0 1 dZ1 2082 0 2 0 0 0 0 0 0 1e3 1e-8 0 3 0 1 0 1 1 4
 5 6 7 0 0 8 9 10 0 0 0 0 0 0 70 11 CI9 list_type0 0 1 uI10 notransmit0 0 1 lCCC
DCCDI12 finger_index0 0 1 dI12 finger_block1012 0 CZ2 0 4 T1 0 0 2 20 1 11 11 13
 255 4 94 0 1 0 12 0 0 13 0 50 255 5 1854 0 14 15 0 0 +0 .0105 .0165 0 .70710678
1186549 .707106781186546 1 0 0 30 255 6 1777 0 9 16 0 0 +-.02033333333333345 .00
033333333333338 .02666666666666665 -.577350269189623 .577350269189626 -.57735026
9189629 29 255 7 1665 0 10 17 0 -.004 .0115 .0155 19 8 CCCCCCCA5 owner12 0 Z8 28
 0 1 13 0 18 V0 16 255 9 1680 0 ?19 0 20 6 0 0 1 18 255 10 1663 0 21 0 22 7 ?1 1
7 255 21 0 23 24 25 10 26 27 0 28 +18 22 1653 0 29 10 30 17 ?1 17 29 0 31 32 33
 22 34 35 0 19 +18 30 1650 0 32 22 36 37 ?1 29 17 1655 0 22 37 7 -.0335 .0135 .0
135 29 37 1652 0 30 38 17 -.006 .0135 .0135 29 38 1634 0 36 39 37 .004 .0115 .01
55 18 36 1632 0 40 30 41 38 ?1 29 39 1621 0 41 42 38 -.004 .0105 .0165 18 41 161
9 0 43 36 44 39 ?1 29 42 1618 0 44 45 39 .004 .0105 .0165 18 44 1616 0 46 41 47
 42 ?1 29 45 1615 0 47 48 42 .021 .0105 .0165 18 47 1613 0 49 44 50 45 ?1 29 48
 1605 0 50 51 45 .0335 .0135 .0135 18 50 1603 0 52 47 53 48 ?1 29 51 1596 0 53 5
4 48 .021 .0135 .0135 18 53 1594 0 55 50 56 51 ?1 29 54 1593 0 56 57 51 .006 .01
35 .0135 18 56 1591 0 58 53 59 54 ?1 29 57 1585 0 59 60 54 .027 .0135 .0135 18 5
9 1583 0 61 56 62 57 ?1 29 60 1577 0 62 63 57 .027 .0105 .0165 18 62 1575 0 64 5
9 65 60 ?1 29 63 1005 0 65 66 60 .0335 .0135 .032 18 65 1003 0 67 62 68 63 ?1 29
 66 997 0 68 69 63 .0305 .0105 .032 18 68 995 0 70 65 71 66 ?1 29 69 994 0 71 72
 66 .0305 .0105 .0165 18 71 992 0 73 68 74 69 ?1 29 72 981 0 74 75 69 -.0305 .01
05 .032 18 74 979 0 76 71 77 72 ?1 29 75 978 0 77 78 72 -.0305 .0105 .0165 18 77
 976 0 79 74 80 75 ?1 29 78 965 0 80 81 75 -.0335 .0135 .032 18 80 963 0 82 77 8
3 78 ?1 29 81 846 0 83 84 78 .006 .0135 0 18 83 844 0 85 80 86 81 ?1 29 84 843 0
 86 87 81 .004 .0115 0 18 86 841 0 88 83 89 84 ?1 29 87 840 0 89 90 84 -.004 .01
15 0 18 89 838 0 91 86 92 87 ?1 29 90 831 0 92 93 87 -.006 .0135 0 18 92 829 0 9
4 89 95 90 ?1 29 93 24 0 95 96 90 -.0305 -.0135 .0165 18 95 22 0 97 92 98 93 ?1
 29 96 302 0 99 100 93 -.004 .0035 .0165 18 99 228 0 101 102 103 96 ?1 29 100 30
5 0 103 104 96 .004 .0035 .0165 18 103 231 0 105 99 106 100 ?1 29 104 306 0 98 1
07 100 -.004 .0035 0 18 98 229 0 108 95 102 104 ?1 29 107 309 0 102 109 104 .004
 .0035 0 18 102 230 0 110 98 99 107 ?1 29 109 428 0 106 111 107 .0305 -.0135 .01
65 18 106 371 0 112 103 113 109 ?1 29 111 430 0 114 115 109 .0405 -.0135 0 18 11
4 378 0 116 117 118 111 ?1 29 115 431 0 118 119 111 .0405 .0135 0 18 118 380 0 1
20 114 121 115 ?1 29 119 433 0 113 122 115 .0305 -.0135 .032 18 113 372 0 123 10
6 124 119 ?1 29 122 434 0 124 125 119 .0405 -.0135 .032 18 124 375 0 126 113 117
 122 ?1 29 125 435 0 117 127 122 .0405 .0135 .032 18 117 377 0 128 124 114 125 ?
1 29 127 538 0 129 130 125 -.0405 .0135 0 18 129 486 0 131 132 133 127 ?1 29 130
 539 0 133 134 127 -.0405 -.0135 0 18 133 488 0 135 129 136 130 ?1 29 134 542 0
 121 137 130 -.0405 .0135 .032 18 121 483 0 138 118 139 134 ?1 29 137 543 0 139
 140 134 -.0405 -.0135 .032 18 139 485 0 141 121 132 137 ?1 29 140 544 0 132 142
 137 -.0305 -.0135 .032 18 132 487 0 143 139 129 140 ?1 29 142 1353 0 136 144 14
0 .027 -.0135 .0105 18 136 1290 0 145 133 146 142 ?1 29 144 1354 0 146 147 142 .
027 -.0135 .0165 18 146 1280 0 148 136 149 144 ?1 29 147 1355 0 149 150 144 .021
 -.0135 .0165 18 149 1287 0 151 146 152 147 ?1 29 150 1356 0 152 153 147 .021 -.
0135 .0105 18 152 1282 0 154 149 155 150 ?1 29 153 1359 0 155 156 150 .021 .0135
 .0105 18 155 1283 0 157 152 158 153 ?1 29 156 1360 0 158 0 153 .027 .0135 .0105
 18 158 1284 0 159 155 0 156 ?1 17 159 0 160 161 61 158 162 163 0 164 +15 255 16
0 1303 0 165 166 0 17 161 0 160 148 159 136 164 167 0 168 -17 61 0 160 159 165 5
9 64 169 0 162 +17 162 0 170 171 172 59 159 163 0 173 -16 163 1584 0 ?159 174 17
5 176 0 0 1 17 164 0 177 178 145 158 161 167 0 172 +15 177 1299 0 164 179 0 17 1
78 0 177 180 164 155 172 174 0 181 +17 145 0 177 164 180 136 182 183 0 161 -16 1
67 1249 0 ?164 184 185 186 0 0 1 17 172 0 170 162 181 158 178 174 0 0 -15 170 82
 0 162 187 0 17 181 0 170 172 55 155 188 185 0 0 -16 174 1271 0 ?178 185 163 189
 0 0 1 16 185 1274 0 ?188 167 174 190 0 0 1 30 189 1347 0 174 176 190 0 +.027 .0
135 .0105 -1 0 289120579329468e-30 30 176 1348 0 163 191 189 0 +.027 .0135 .0165
 0 0 -1 30 190 1346 0 185 189 192 0 +.021 .0135 .0165 -578241158658936e-30 0 1 3
0 192 1342 0 184 190 186 0 +.021 -.0225 .0105 0 1 0 16 184 1247 0 ?157 193 167 1
92 0 0 1 30 186 1341 0 167 192 194 0 +.027 -.0225 .0105 0 1 0 30 194 1340 0 193
 186 195 0 +.021 -.0135 .0165 -578241158658936e-30 0 1 16 193 1250 0 ?196 197 18
4 194 0 0 1 30 195 1339 0 197 194 198 0 +.027 -.0135 .0165 0 0 -1 16 197 1248 0
 ?168 199 193 195 0 0 1 31 255 198 800 0 200 195 201 0 +.0355 -1734723475976805e
-33 .004 0 0 -1 -1 0 0 .00375 16 200 734 0 ?202 203 204 198 0 0 1 31 201 799 0 2
04 198 205 0 +.0355 -1734723475976805e-33 0 0 0 -1 -1 0 0 .00375 16 204 730 0 ?2
06 200 207 201 0 0 1 31 205 798 0 207 201 208 0 +-.0355 0 .004 0 0 -1 -1 0 0 .00
375 16 207 762 0 ?209 204 199 205 0 0 1 31 208 797 0 199 205 210 0 +-.0355 0 0 0
 0 -1 -1 0 0 .00375 16 199 758 0 ?211 207 197 208 0 0 1 31 210 674 0 212 208 213
 0 +-.0355 0 .032 0 0 1 1 0 0 .002 16 212 617 0 ?214 215 216 210 0 0 1 31 213 67
2 0 216 210 217 0 +.0355 -1734723475976805e-33 .032 0 0 1 1 0 0 .002 16 216 641
 0 ?218 212 219 213 0 0 1 30 217 534 0 220 213 221 0 +-.0305 .0135 .032 -1284980
352575412e-31 -1 0 16 220 980 0 ?143 222 215 217 0 0 1 30 221 533 0 222 217 223
 0 +-.0305 -.0135 .032 -1 0 0 16 222 463 0 ?224 225 220 221 0 0 1 30 223 532 0 2
25 221 226 0 +-.0405 .0135 .032 0 1 0 16 225 459 0 ?227 228 222 223 0 0 1 30 226
 531 0 228 223 229 0 +-.0305 .0135 .032 1 0 0 16 228 454 0 ?33 230 225 226 0 0 1
 30 229 528 0 215 226 231 0 +-.0405 .0135 0 0 1 0 16 215 473 0 ?232 220 212 229
 0 0 1 30 231 525 0 233 229 234 0 +-.0405 .0135 .032 0 0 -1 16 233 462 0 ?235 23
6 237 231 0 0 1 30 234 524 0 237 231 238 0 +-.0405 -.0135 .032 0 0 -1 16 237 466
 0 ?239 233 230 234 0 0 1 30 238 523 0 230 234 240 0 +-.0305 -.0135 .032 0 0 -1
 16 230 451 0 ?241 237 228 238 0 0 1 30 240 426 0 242 238 243 0 +.0305 -.0135 .0
32 0 1 0 16 242 340 0 ?244 245 236 240 0 0 1 30 243 425 0 245 240 246 0 +.0305 .
0135 .032 1 -1734723475976805e-31 0 16 245 1004 0 ?128 247 242 243 0 0 1 30 246
 424 0 247 243 248 0 +.0405 -.0135 .032 0 -1 0 16 247 351 0 ?249 250 245 246 0 0
 1 30 248 423 0 250 246 251 0 +.0305 -.0135 .032 -1 1734723475976805e-31 0 16 25
0 346 0 ?252 253 247 248 0 0 1 30 251 420 0 236 248 254 0 +.0405 -.0135 0 0 -1 0
 16 236 365 0 ?255 242 233 251 0 0 1 30 254 418 0 256 251 257 0 +.0305 -.0135 .0
32 0 0 -1 16 256 349 0 ?258 259 260 254 0 0 1 30 257 417 0 260 254 261 0 +.0405
 -.0135 .032 0 0 -1 16 260 354 0 ?262 256 253 257 0 0 1 30 261 416 0 253 257 263
 0 +.0405 .0135 .032 0 0 -1 16 253 358 0 ?264 260 250 261 0 0 1 31 263 297 0 265
 261 266 0 +-3469446951953615e-33 .0035 0 0 0 1 1 0 0 .004 16 265 201 0 ?267 268
 269 263 0 0 1 30 266 296 0 268 263 270 0 +.004 .03852439024390255 0 -1238225322
337202e-31 1 0 16 268 197 0 ?271 272 265 266 0 0 1 31 270 293 0 259 266 273 0 +-
3469446951953615e-33 .0035 .0165 0 0 1 1 0 0 .004 16 259 189 0 ?274 275 256 270
 0 0 1 30 273 292 0 275 270 276 0 +.004 .03852439024390255 .0165 -12382253223372
02e-31 1 0 16 275 182 0 ?277 269 259 273 0 0 1 30 276 290 0 269 273 278 0 +-.004
 .03852439024390255 .0165 1238225322337202e-31 -1 0 16 269 1620 0 ?101 265 275 2
76 0 0 1 30 278 289 0 279 276 280 0 +-.004 .0035 0 0 0 1 16 279 196 0 ?281 282 2
72 278 0 0 1 30 280 286 0 272 278 283 0 +.004 .0035 0 0 0 1 16 272 204 0 ?105 27
9 268 280 0 0 1 30 283 5 0 284 280 285 0 +.0305 .0135 .0165 0 1 0 16 284 4 0 ?28
6 287 288 283 0 0 1 30 285 11 0 287 283 289 0 +-.0305 .0135 .0165 25699607051508
25e-31 -1 0 16 287 977 0 ?97 290 284 285 0 0 1 30 289 14 0 291 285 292 0 +-.0305
 -.0135 .0165 1 0 0 16 291 13 0 ?293 294 290 289 290 290 1 30 292 68 0 295 289 2
96 0 +-.0305 .0135 0 -1 0 0 16 295 53 0 ?297 288 282 292 282 282 1 30 296 66 0 2
88 292 298 0 +-.0305 -.0135 0 1 0 0 16 288 45 0 ?116 284 295 296 0 0 1 30 298 15
1 0 294 296 299 0 +-.004 -495290128934881e-33 0 1238225322337202e-31 -1 0 16 294
 839 0 ?108 300 291 298 0 0 1 31 299 704 0 203 298 301 0 -.0355 -173472347597680
5e-33 .004 0 0 -1 -1 0 0 .002 16 203 737 0 ?302 219 200 299 0 0 1 31 301 710 0 2
19 299 303 0 --.0355 0 .004 0 0 -1 -1 0 0 .002 16 219 765 0 ?304 216 203 301 0 0
 1 30 303 834 0 300 301 305 0 +-.006 .0135 .0165 0 0 -1 16 300 1651 0 ?94 306 29
4 303 0 0 1 30 305 849 0 306 303 307 0 -.006 .0135 0 -.707106781186544 -.7071067
81186551 0 16 306 847 0 ?85 308 300 305 0 0 1 30 307 856 0 308 305 309 0 --.006
 .0135 0 -.707106781186545 .707106781186551 0 16 308 854 0 ?91 310 306 307 0 0 1
 30 309 866 0 310 307 311 0 +-.004 .0115 0 0 0 1 16 310 864 0 ?28 312 308 309 0
 0 1 30 311 887 0 312 309 313 0 +.006 .0135 .0165 0 0 1 16 312 885 0 ?314 315 31
0 311 0 0 1 30 313 893 0 315 311 316 0 +.004 .0115 0 0 0 -1 16 315 1633 0 ?88 35
 312 313 0 0 1 30 316 972 0 35 313 317 0 +-.0335 .0135 .0165 0 0 -1 16 35 970 0
 ?29 318 315 316 0 0 1 30 317 984 0 318 316 319 0 +-.0305 .0105 .032 0 0 1 16 31
8 982 0 ?76 320 35 317 0 0 1 30 319 989 0 320 317 321 0 +-.0335 .0135 .032 -.707
106781186546 .70710678118655 0 16 320 987 0 ?82 322 318 319 0 0 1 30 321 1000 0
 322 319 323 0 +.0305 .0105 .0165 0 0 -1 16 322 998 0 ?324 325 320 321 0 0 1 30
 323 1009 0 325 321 326 0 +.0335 .0135 .032 0 0 1 16 325 1007 0 ?67 327 322 323
 0 0 1 30 326 1018 0 327 323 328 0 +.0305 .0105 .032 -.70710678118655 -.70710678
1186546 0 16 327 1016 0 ?70 329 325 326 0 0 1 30 328 1206 0 329 326 330 0 +.021
 0 .0165 0 -1 0 16 329 1614 0 ?151 331 327 328 0 0 1 30 330 1211 0 331 328 332 0
 +.027 0 .0165 0 1 0 16 331 1209 0 ?165 183 329 330 0 0 1 30 332 1220 0 183 330
 333 0 +-.0305 -.0135 .0105 -1 0 289120579329468e-30 16 183 1218 0 ?182 334 331
 332 0 0 1 31 333 1471 0 335 332 336 0 +.024 -.0085 0 0 0 1 1 0 0 .0015 16 335 1
519 0 ?337 338 339 333 0 0 1 31 336 1479 0 338 333 340 0 +.024 .0085 0 0 0 1 1 0
 0 .0015 16 338 1495 0 ?341 342 335 336 0 0 1 30 340 1580 0 334 336 343 0 +.027
 .0105 .0165 -1 0 0 16 334 1578 0 ?344 169 183 340 0 0 1 30 343 1588 0 169 340 3
45 0 +.027 .0105 .0165 0 .707106781186546 -.707106781186549 16 169 1586 0 ?61 34
6 334 343 0 0 1 30 345 1599 0 346 343 347 0 +.021 .0135 .0135 1 0 0 16 346 1597
 0 ?55 348 169 345 0 0 1 30 347 1609 0 348 345 349 0 +.0335 .0135 .0135 1 0 0 16
 348 1607 0 ?171 350 346 347 0 0 1 30 349 1624 0 350 347 351 0 +-.0335 .0105 .01
65 -1 0 0 16 350 1622 0 ?352 353 348 349 0 0 1 30 351 1629 0 353 349 354 0 +.006
 .0105 .0165 -1 0 0 16 353 1627 0 ?355 356 350 351 0 0 1 30 354 1637 0 356 351 3
57 0 +.004 .0105 .0165 -875557522061532e-31 .707106781186546 -.707106781186549 1
6 356 1635 0 ?40 358 353 354 0 0 1 30 357 1642 0 358 354 359 0 -.005 .0125 .0145
 -.577350269189621 -.577350269189627 .577350269189629 16 358 1640 0 ?58 360 356
 357 0 0 1 30 359 1647 0 360 357 361 0 +.021 .0105 .0165 -408878244448901e-30 -.
707106781186546 .707106781186549 16 360 1645 0 ?49 362 358 359 0 0 1 30 361 1656
 0 362 359 363 0 +-.006 .0135 .0135 1 0 0 16 362 1654 0 ?32 27 360 361 0 0 1 30
 363 1668 0 27 361 364 0 --.005 .0125 .0145 -.577350269189622 .577350269189627 -
.577350269189629 16 27 1666 0 ?21 365 362 363 0 0 1 30 364 1673 0 365 363 16 0 +
-.004 .0105 .0165 875557522061532e-31 -.707106781186546 .707106781186549 16 365
 1671 0 ?43 20 27 364 0 0 1 30 16 1776 0 20 364 6 0 +.0203333333333333 .00033333
33333333415 .0266666666666667 -.577350269189627 -.577350269189624 .5773502691896
26 16 20 1676 0 ?73 9 365 16 0 0 1 17 73 0 366 367 52 71 368 20 0 324 +15 366 11
55 0 369 370 0 17 367 0 366 369 73 68 324 322 0 0 -17 52 0 366 73 369 50 67 325
 0 171 -17 368 0 371 173 372 50 73 20 0 0 -17 324 0 373 374 244 71 367 322 0 286
 +15 373 384 0 244 375 0 17 374 0 373 123 324 106 286 284 0 258 -17 244 0 373 32
4 123 68 376 242 0 367 +17 286 0 377 344 112 71 374 284 0 372 +15 377 1210 0 286
 12 0 17 344 0 377 378 286 62 372 334 0 165 +17 112 0 377 286 378 106 379 290 0
 374 +17 372 0 371 368 64 71 344 334 0 0 -15 371 1796 0 368 380 0 17 64 0 371 37
2 173 62 61 169 0 344 -17 173 0 371 64 368 59 171 348 0 0 -17 171 0 170 67 162 5
0 173 348 0 368 +17 67 0 170 128 171 65 52 325 0 381 +17 128 0 170 264 67 117 38
1 245 0 382 +17 381 0 383 70 384 65 128 245 0 369 -15 383 403 0 381 385 0 17 70
 0 383 376 381 68 369 327 0 244 +17 384 0 383 381 386 117 249 247 0 0 -17 369 0
 366 52 367 65 70 327 0 0 -17 386 0 383 384 376 124 252 250 0 0 -17 249 0 387 26
2 382 124 384 247 0 386 +15 387 396 0 388 389 0 17 262 0 387 388 249 114 126 260
 0 255 +17 382 0 387 249 388 117 264 253 0 384 -17 388 0 387 382 262 118 255 236
 0 0 -17 264 0 170 297 128 118 382 253 0 388 +17 297 0 170 314 264 83 120 295 0
 390 +17 314 0 170 55 297 56 390 312 0 391 +17 120 0 392 255 85 118 297 295 0 26
4 -17 390 0 393 394 58 83 314 312 0 0 -15 393 931 0 395 396 0 17 394 0 393 395 3
90 86 85 306 0 0 -17 58 0 393 390 395 56 397 358 0 314 +17 395 0 393 58 394 36 8
8 315 0 397 -17 397 0 398 46 391 36 58 358 0 0 -15 398 1817 0 399 400 0 17 46 0
 398 401 397 44 40 356 0 355 -17 391 0 398 397 399 56 55 346 0 0 -17 399 0 398 3
91 401 53 49 360 0 0 -17 55 0 170 181 314 53 391 346 0 188 +17 188 0 402 49 157
 53 181 185 0 399 +15 402 1307 0 188 403 0 17 49 0 402 151 188 47 399 360 0 404
 +17 157 0 402 188 154 155 180 184 0 178 +17 154 0 402 157 151 152 196 193 0 180
 -17 180 0 177 145 178 152 157 184 0 182 -17 182 0 405 196 168 152 145 183 0 0 +
15 405 1215 0 379 406 0 17 196 0 405 407 182 149 154 193 0 293 +17 168 0 405 182
 379 136 148 197 0 0 +17 379 0 405 168 258 146 112 290 0 0 -17 148 0 160 165 161
 146 168 197 0 378 -17 165 0 160 61 148 62 378 331 0 0 +17 378 0 377 112 344 146
 165 331 0 379 -17 258 0 405 379 252 106 123 256 0 0 +16 290 1196 0 ?112 291 287
 289 291 291 1 17 252 0 405 258 126 113 386 250 0 0 +17 123 0 373 244 374 113 25
8 256 0 376 -17 376 0 383 386 70 113 244 242 0 252 -17 126 0 405 252 116 124 262
 260 0 249 -17 116 0 405 126 239 114 135 288 0 262 +17 239 0 405 116 224 133 141
 237 0 408 +17 135 0 392 232 255 133 116 288 0 239 -15 392 44 0 409 410 0 17 232
 0 392 409 135 129 408 215 0 0 +17 255 0 392 135 120 114 388 236 0 0 +17 409 0 3
92 91 232 92 131 282 0 0 -17 408 0 411 141 235 133 232 215 0 0 -15 411 504 0 408
 412 0 17 141 0 411 227 408 139 239 237 0 413 -17 235 0 411 408 227 129 138 233
 0 232 +17 227 0 411 235 141 121 413 225 0 414 +17 138 0 31 33 131 121 235 233 0
 227 -15 31 174 0 29 415 0 17 33 0 31 29 138 80 414 228 0 34 +17 131 0 31 138 94
 129 409 282 0 235 +17 94 0 31 131 32 92 25 300 0 416 +16 282 830 0 ?131 295 279
 292 295 295 1 17 32 0 31 94 29 30 417 362 0 25 +17 25 0 23 21 416 30 94 300 0 2
6 -17 416 0 23 25 24 92 91 308 0 409 -15 23 910 0 25 418 0 17 24 0 23 416 21 89
 28 310 0 0 -17 91 0 392 108 409 89 416 308 0 419 +17 108 0 392 267 91 98 419 29
4 0 420 +17 419 0 421 28 420 89 108 294 0 24 -15 421 247 0 28 422 0 17 28 0 421
 43 419 10 24 310 0 423 +17 420 0 421 419 101 98 281 279 0 424 -17 101 0 421 420
 43 99 425 269 0 281 +17 281 0 426 274 424 99 420 279 0 427 +17 424 0 426 281 11
0 98 267 265 0 0 -15 426 255 0 274 428 0 17 110 0 426 424 274 102 105 272 0 429
 -17 267 0 392 271 108 102 424 265 0 0 +17 271 0 392 85 267 86 429 268 0 394 +17
 85 0 392 120 271 83 394 306 0 297 +17 429 0 430 105 88 102 271 268 0 267 -15 43
0 251 0 277 431 0 17 105 0 430 277 429 103 110 272 0 274 +17 88 0 430 429 40 86
 395 315 0 271 +17 40 0 430 88 277 36 46 356 0 395 +17 277 0 430 40 105 44 432 2
75 0 0 +17 432 0 433 427 355 103 277 275 0 0 -15 433 1205 0 404 434 0 17 427 0 4
33 425 432 99 274 259 0 0 -17 355 0 433 432 404 44 401 353 0 277 +17 404 0 433 3
55 293 47 151 329 0 401 -17 401 0 398 399 46 47 355 353 0 0 -17 293 0 433 404 97
 149 407 291 0 0 +17 151 0 402 154 49 149 404 329 0 196 +17 97 0 433 293 352 95
 435 287 0 241 +17 407 0 405 436 196 95 293 291 0 0 -17 436 0 405 224 407 132 24
1 230 0 437 -17 224 0 405 239 436 139 437 222 0 0 +17 241 0 438 435 143 95 436 2
30 0 407 +17 437 0 439 440 413 132 224 222 0 0 -15 439 511 0 440 441 0 17 440 0
 439 82 437 74 143 220 0 442 -17 413 0 439 437 414 139 227 225 0 224 -17 414 0 4
39 413 82 121 33 228 0 0 -17 82 0 439 414 440 80 442 320 0 33 +17 442 0 443 444
 34 74 82 320 0 0 -15 443 1134 0 442 445 0 17 444 0 443 19 442 77 76 318 0 0 -17
 34 0 443 442 19 80 29 35 0 0 -17 19 0 443 34 444 22 79 9 0 417 +17 79 0 446 447
 417 77 19 9 0 352 -17 417 0 446 79 26 22 32 362 0 0 -15 446 1841 0 26 14 0 17 2
6 0 446 417 423 30 21 27 0 0 -17 423 0 446 26 447 10 43 365 0 0 -17 447 0 446 42
3 79 41 352 350 0 0 -17 43 0 421 101 28 41 423 365 0 425 +17 425 0 433 352 427 4
1 101 269 0 447 -17 352 0 433 97 425 77 447 350 0 435 +17 435 0 438 76 241 77 97
 287 0 444 -15 438 492 0 435 448 0 17 76 0 438 143 435 74 444 318 0 440 +17 143
 0 438 241 76 132 440 220 0 436 +14 255 448 489 449 ?412 385 438 4 450 +0 0 412
 385 18 81 255 1 449 2046 451 448 452 0 0 453 454 14 412 501 453 ?441 448 411 4
 455 +0 0 441 448 18 14 385 401 456 ?448 389 457 4 458 -0 0 448 389 18 50 450 51
7 0 448 455 458 0 +-.0305 .0135 .032 1 -1284980352575412e-31 0 1284980352575412e
-31 1 0 13 18 29 0 0 0 0 0 0 8 12 14 12 1207 459 ?460 0 377 4 461 +434 434 460 0
 18 81 1 459 2049 451 12 462 0 456 463 464 14 460 711 463 ?465 12 466 4 467 -0 0
 465 12 18 50 461 2 0 434 468 469 0 +0 0 .0165 0 0 1 1 0 0 14 434 1 470 ?410 406
 433 4 461 +12 12 410 406 18 81 1 470 2051 451 434 471 0 463 472 473 14 410 43 4
72 ?422 434 474 4 469 -0 0 422 434 18 14 406 79 475 ?434 187 405 4 476 -0 0 434
 187 18 81 1 475 2053 451 406 477 0 472 478 479 14 187 83 478 ?406 415 170 4 480
 -415 415 406 415 18 50 476 86 0 406 469 480 0 +-.0305 -.0135 .0165 0 1 0 0 0 1
 50 469 65 0 410 461 476 0 +0 0 0 0 0 1 1 0 0 50 480 88 0 187 476 481 0 +-.0305
 .0135 .0165 0 -1 0 0 0 -1 50 481 921 0 418 480 482 0 --.006 .0135 .0165 -.70710
678118655 -.707106781186545 0 0 0 -1 14 418 909 483 ?396 484 23 4 481 +0 0 396 4
84 18 50 482 942 0 396 481 485 0 -.006 .0135 .0165 .707106781186551 -.7071067811
86544 0 0 0 1 14 396 930 486 ?445 418 393 4 482 +0 0 445 418 18 50 485 1145 0 44
5 482 487 0 +-.0335 .0135 .0165 .70710678118655 .707106781186546 0 0 0 1 14 445
 1133 488 ?370 396 443 4 485 +0 0 370 396 18 50 487 1166 0 370 485 489 0 +.0305
 .0105 .032 -.707106781186546 .70710678118655 0 0 0 1 14 370 1154 490 ?179 445 3
66 4 487 +0 0 179 445 18 50 489 1807 0 380 487 15 0 +0 .0105 .0165 0 .7071067811
86549 .707106781186546 1 0 0 14 380 1795 491 ?400 492 371 4 489 +0 0 400 492 18
 50 15 1830 0 400 489 5 0 +0 .0105 .0165 0 .707106781186549 .707106781186546 1 0
 0 14 400 1816 493 ?14 380 398 4 15 +0 0 14 380 18 81 1 493 2060 451 400 494 0 4
91 495 496 14 14 1840 495 ?0 400 446 4 5 +0 0 0 400 18 81 1 495 2061 451 14 497
 0 493 498 499 80 255 1 451 500 501 9000 1 1 1 1 1 1 1 1 0 FFFFTFTFFFFFFF1 81 1
 497 1963 502 14 0 495 494 0 503 81 1 498 2062 451 403 504 0 495 505 506 82 255
 1 499 -29818597 14 403 1304 498 ?507 166 402 4 508 -0 0 507 166 18 81 1 504 195
4 502 403 0 498 509 510 511 81 1 505 2063 451 166 509 0 498 512 513 82 1 506 -17
11537893 14 166 1300 505 ?403 179 160 4 514 -0 0 403 179 18 81 1 509 1953 502 16
6 0 505 515 504 516 81 1 512 2064 451 375 517 0 505 518 519 82 1 513 -1710358245
 14 375 381 512 ?389 428 373 4 520 +0 0 389 428 18 81 1 517 1938 502 375 0 512 5
21 522 523 81 1 518 2065 451 431 524 0 512 525 526 82 1 519 -1835466469 14 431 2
48 518 ?428 422 430 4 527 -0 0 428 422 18 81 1 524 1936 502 431 0 518 528 521 52
9 81 1 525 2066 451 422 528 0 518 530 531 82 1 526 -1891696357 14 422 244 525 ?4
31 410 421 4 532 -0 0 431 410 18 81 1 528 1935 502 422 0 525 533 524 534 81 1 53
0 2067 451 415 535 0 525 536 537 82 1 531 -1890254565 14 415 175 530 ?187 465 31
 4 480 -187 187 187 465 18 81 1 535 1930 502 415 0 530 538 539 540 81 1 536 2068
 451 492 541 0 530 542 543 82 1 537 -1887895269 14 492 1502 536 ?380 544 545 4 5
46 -0 0 380 544 18 81 1 541 1960 502 492 0 536 547 548 549 81 1 542 2069 451 544
 547 0 536 550 551 82 1 543 -1666514665 14 544 1526 542 ?492 552 553 4 554 -0 0
 492 552 18 81 1 547 1959 502 544 0 542 555 541 556 81 1 550 2070 451 552 555 0
 542 557 558 82 1 551 -1667038953 14 552 1412 550 ?544 559 560 4 561 +0 0 544 55
9 18 81 1 555 1958 502 552 0 550 562 547 563 81 1 557 2071 451 564 565 0 550 566
 567 82 1 558 -1694498537 14 564 1430 557 ?559 507 568 4 569 +0 0 559 507 18 81
 1 565 1956 502 564 0 557 510 562 570 81 1 566 2072 451 559 562 0 557 571 572 82
 1 567 -1690500841 14 559 1407 566 ?552 564 573 4 574 -0 0 552 564 18 81 1 562 1
957 502 559 0 566 565 555 575 81 1 571 2073 451 507 510 0 566 576 577 82 1 572 -
1692532459 14 507 1425 571 ?564 403 578 4 579 -0 0 564 403 18 81 1 510 1955 502
 507 0 571 504 565 580 81 1 576 2074 451 179 515 0 571 581 582 82 1 577 -1688534
763 14 179 1296 576 ?166 370 583 4 584 -0 0 166 370 18 81 1 515 1952 502 179 0 5
76 585 509 586 81 1 581 2075 451 441 587 0 576 588 589 82 1 582 -1708588779 14 4
41 509 581 ?590 412 591 4 592 -0 0 590 412 18 81 1 587 1943 502 441 0 581 593 59
4 595 81 1 588 2076 451 484 596 0 581 597 598 82 1 589 -1847000815 14 484 774 58
8 ?418 599 600 4 601 -0 0 418 599 18 81 1 596 1947 502 484 0 588 602 603 604 81
 1 597 2077 451 599 602 0 588 605 606 82 1 598 -1789329137 14 599 766 597 ?484 6
07 608 4 609 +0 0 484 607 18 81 1 602 1946 502 599 0 597 610 596 611 81 1 605 20
78 451 607 610 0 597 612 613 82 1 606 -1784676081 14 607 746 605 ?599 590 614 4
 615 -0 0 599 590 18 81 1 610 1945 502 607 0 605 594 602 616 81 1 612 2079 451 5
90 594 0 605 617 618 82 1 613 -1793326833 14 590 738 612 ?607 441 619 4 620 +0 0
 607 441 18 81 1 594 1944 502 590 0 612 587 610 621 81 1 617 2080 451 465 538 0
 612 622 623 82 1 618 -1786183409 14 465 705 617 ?415 460 624 4 625 -0 0 415 460
 18 81 1 538 1929 502 465 0 617 626 535 627 81 1 622 2081 451 389 522 0 617 628
 629 82 1 623 -1787166449 14 389 393 622 ?385 375 387 4 630 +0 0 385 375 18 81 1
 522 1939 502 389 0 622 517 631 632 81 1 628 2082 451 428 521 0 622 0 633 82 1 6
29 -1851522805 14 428 252 628 ?375 431 426 4 468 -0 0 375 431 18 81 1 521 1937 5
02 428 0 628 524 517 634 82 1 633 -1897332471 80 1 502 0 635 8001 0 0 0 0 3 5 0
 0 0 FFFFTFTFFFFFFF2 83 255 3 634 0 1 1 79 255 15 635 SDL/TYSA_COLOUR51 255 468
 276 0 428 527 461 0 +-3469446951953615e-33 .0035 0 0 0 1 .004 1 0 0 50 527 277
 0 431 532 468 0 +.004 .03852439024390255 0 1 1238225322337202e-31 0 -1238225322
337202e-31 1 0 50 532 279 0 422 520 527 0 +-.004 .03852439024390255 0 -1 -123822
5322337202e-31 0 1238225322337202e-31 -1 0 50 520 409 0 375 630 532 0 +.0305 -.0
135 .032 -1 0 0 0 0 1 50 630 411 0 389 458 520 0 +.0405 -.0135 .032 1 0 0 0 0 -1
 50 458 414 0 385 450 630 0 +0 0 .032 0 0 -1 -1 0 0 81 1 631 1940 502 385 0 456
 522 452 636 83 3 632 0 1 1 81 1 456 2048 451 385 631 0 453 459 637 81 1 452 194
1 502 448 0 449 631 593 638 83 3 636 0 1 1 81 1 593 1942 502 412 0 453 452 587 6
39 83 3 638 0 1 1 81 1 453 2047 451 412 593 0 449 456 640 83 3 639 0 1 1 82 1 64
0 -1840316149 82 1 637 -1858207471 81 1 626 1928 502 460 0 463 462 538 641 83 3
 627 0 1 1 81 1 463 2050 451 460 626 0 459 470 642 81 1 462 1927 502 12 0 459 0
 626 643 83 3 641 0 1 1 83 3 643 0 1 1 82 1 642 -1785659121 15 624 647 0 218 465
 644 51 625 664 0 465 467 592 0 +.0355 -1734723475976805e-33 -.008 0 0 1 .002 1
 0 0 51 467 667 0 460 601 625 0 +-.0355 0 -.008 0 0 1 .002 1 0 0 50 592 522 0 44
1 625 455 0 +0 0 .032 0 0 -1 -1 0 0 50 455 519 0 412 592 450 0 +-.0405 .0135 .03
2 -1 0 0 0 0 1 51 601 789 0 484 609 467 0 +-.0355 0 .004 0 0 -1 .00375 -1 0 0 50
 609 791 0 599 615 601 0 +-.0355 0 .004 0 0 -1 -1 0 0 51 615 792 0 607 620 609 0
 +.0355 -1734723475976805e-33 .004 0 0 -1 .00375 -1 0 0 50 620 794 0 590 514 615
 0 +.0355 -1734723475976805e-33 .004 0 0 -1 -1 0 0 50 514 1332 0 166 584 620 0 +
.027 -.0225 .0165 1 0 0 0 0 -1 50 584 1333 0 179 508 514 0 +.027 -.0225 .0105 -2
89120579329468e-30 0 -1 -1 0 289120579329468e-30 50 508 1334 0 403 579 584 0 +.0
21 -.0225 .0165 -1 0 -578241158658936e-30 -578241158658936e-30 0 1 51 579 1440 0
 507 569 508 0 +.024 -.0085 .0025 0 0 1 .00225 1 0 0 50 569 1442 0 564 574 579 0
 +.024 -.0085 .0025 0 0 1 1 0 0 51 574 1443 0 559 561 569 0 +.024 .0085 .0025 0
 0 1 .00225 1 0 0 50 561 1445 0 552 554 574 0 +.024 .0085 .0025 0 0 1 1 0 0 51 5
54 1546 0 544 546 561 0 +.024 -.0085 -.0055 0 0 1 .0015 1 0 0 51 546 1549 0 492
 0 554 0 +.024 .0085 -.0055 0 0 1 .0015 1 0 0 17 218 0 624 218 218 0 645 216 0 0
 +15 644 703 0 646 465 0 17 646 0 644 646 646 0 302 203 0 0 -17 302 0 647 302 30
2 0 646 203 0 0 +15 647 741 0 302 590 0 17 645 0 457 645 645 0 218 216 0 0 -15 4
57 593 0 645 385 383 83 3 621 0 1 1 15 619 740 0 202 590 647 17 202 0 619 202 20
2 0 648 200 0 0 +17 648 0 614 648 648 0 202 200 0 0 -15 614 749 0 648 607 649 15
 649 750 0 206 607 0 17 206 0 649 206 206 0 650 204 0 0 +17 650 0 651 650 650 0
 206 204 0 0 -15 651 722 0 650 410 652 15 652 714 0 653 410 392 17 653 0 652 653
 653 0 211 199 0 0 -17 211 0 654 211 211 0 653 199 0 0 +15 654 778 0 211 484 0 8
3 3 616 0 1 1 83 3 611 0 1 1 15 608 768 0 209 599 655 17 209 0 608 209 209 0 656
 207 0 0 +15 655 769 0 304 599 0 17 304 0 655 304 304 0 657 219 0 0 +17 657 0 65
8 657 657 0 304 219 0 0 -15 658 709 0 657 460 0 17 656 0 600 656 656 0 209 207 0
 0 -15 600 777 0 656 484 654 81 1 603 1948 502 418 0 483 596 659 660 83 3 604 0
 1 1 81 1 483 2055 451 418 603 0 478 486 661 81 1 659 1949 502 396 0 486 603 662
 663 83 3 660 0 1 1 81 1 486 2056 451 396 659 0 483 488 664 81 1 662 1950 502 44
5 0 488 659 585 665 83 3 663 0 1 1 81 1 488 2057 451 445 662 0 486 490 666 81 1
 585 1951 502 370 0 490 662 515 667 83 3 665 0 1 1 81 1 490 2058 451 370 585 0 4
88 491 668 83 3 667 0 1 1 81 1 491 2059 451 380 548 0 490 493 669 82 1 668 -1760
034533 81 1 548 1961 502 380 0 491 541 494 670 82 1 669 -34078437 81 1 494 1962
 502 400 0 493 548 497 671 83 3 670 0 1 1 83 3 671 0 1 1 82 1 666 -1762000613 82
 1 664 -1775763173 81 1 478 2054 451 187 539 0 475 483 672 82 1 661 -1777729253
 81 1 539 1931 502 187 0 478 535 477 673 82 1 672 -1923940069 81 1 477 1932 502
 406 0 475 539 471 674 83 3 673 0 1 1 81 1 471 1933 502 434 0 470 477 533 675 83
 3 674 0 1 1 81 1 533 1934 502 410 0 472 471 528 676 83 3 675 0 1 1 81 1 472 205
2 451 410 533 0 470 475 677 83 3 676 0 1 1 82 1 677 -1925381865 83 3 595 0 1 1 1
5 591 587 0 678 441 439 17 678 0 591 678 678 0 214 212 0 0 -17 214 0 466 214 214
 0 678 212 0 0 +15 466 623 0 214 460 658 83 3 586 0 1 1 15 583 1395 0 679 179 68
0 17 679 0 583 679 679 0 681 682 0 0 -15 680 1389 0 683 179 177 17 683 0 680 683
 683 0 684 342 0 0 -17 684 0 685 684 684 0 683 342 0 0 +16 342 1422 0 ?684 686 3
38 191 0 0 1 16 686 1419 0 ?687 682 342 688 0 0 1 31 191 1446 0 342 688 176 0 +.
024 -.0085 .0105 0 0 1 1 0 0 .00225 31 688 1447 0 686 689 191 0 +.024 -.0085 .00
25 0 0 1 1 0 0 .00225 31 689 1448 0 682 690 688 0 +.024 .0085 .0105 0 0 1 1 0 0
 .00225 16 682 1404 0 ?681 175 686 689 0 0 1 31 690 1449 0 175 691 689 0 +.024 .
0085 .0025 0 0 1 1 0 0 .00225 16 175 1401 0 ?692 163 682 690 0 0 1 31 691 1552 0
 693 694 690 0 +.024 -.0085 .0025 0 0 1 1 0 0 .0015 16 693 1523 0 ?695 339 0 691
 0 0 1 31 694 1554 0 339 0 691 0 +.024 .0085 .0025 0 0 1 1 0 0 .0015 16 339 1499
 0 ?696 335 693 694 0 0 1 17 696 0 545 696 696 0 697 339 0 0 +15 545 1505 0 696
 492 698 17 697 0 560 697 697 0 696 339 0 0 -15 560 1486 0 697 552 699 15 699 14
14 0 692 552 0 17 692 0 699 692 692 0 700 175 0 0 +17 700 0 573 700 700 0 692 17
5 0 0 -15 573 1410 0 700 559 701 15 701 1411 0 681 559 0 17 681 0 701 681 681 0
 679 682 0 0 +15 698 1506 0 702 492 0 17 702 0 698 702 702 0 341 338 0 0 -17 341
 0 474 341 341 0 702 338 0 0 +15 474 1477 0 341 410 703 15 703 1469 0 337 410 65
1 17 337 0 703 337 337 0 704 335 0 0 +17 704 0 705 704 704 0 337 335 0 0 -15 705
 1530 0 704 544 0 17 695 0 553 695 695 0 706 693 0 0 +15 553 1529 0 695 544 705
 17 706 0 568 706 706 0 695 693 0 0 -15 568 1491 0 706 564 707 15 707 1432 0 687
 564 0 17 687 0 707 687 687 0 708 686 0 0 +17 708 0 578 708 708 0 687 686 0 0 -1
5 578 1428 0 708 507 685 15 685 1429 0 684 507 0 83 3 580 0 1 1 83 3 575 0 1 1 8
3 3 570 0 1 1 83 3 563 0 1 1 83 3 556 0 1 1 83 3 549 0 1 1 83 3 540 0 1 1 83 3 5
34 0 1 1 83 3 529 0 1 1 83 3 523 0 1 1 83 3 516 0 1 1 83 3 511 0 1 1 83 3 503 0
 1 1 79 14 501 SWEntUnchanged82 1 496 -32112357 82 1 479 -1924464365 82 1 473 -1
931017957 82 1 464 -1713110757 82 1 454 -1833959141 17 274 0 426 110 281 103 427
 259 0 432 +19 13 95 0 1 0 8 4 S0 74 4 CI16 index_map_offset0 0 1 dCCZ20 11 2 0
 0 628 497 0 0 0 0 0 0 0 0 0 0 0 0 0 0 0 0 0 0 1 0 
